<?xml version="1.0" encoding="utf-8"?>
<!-- Generator: Adobe Illustrator 19.0.0, SVG Export Plug-In . SVG Version: 6.00 Build 0)  -->
<svg version="1.1" id="Layer_1" xmlns="http://www.w3.org/2000/svg" xmlns:xlink="http://www.w3.org/1999/xlink" x="0px" y="0px"
	 viewBox="0 0 512 512" style="enable-background:new 0 0 512 512;" xml:space="preserve">
<style type="text/css">
	.st0{fill:#FFCE31;}
	.st1{fill:#ED4C5C;}
	.st2{fill:#C8B100;}
	.st3{fill:#FFFFFF;}
	.st4{fill:#005BBF;}
	.st5{fill:#C7B500;}
</style>
<g id="XMLID_2_">
	<path id="XMLID_4_" class="st0" d="M0.8,256c0,50.3,14.1,97.4,39.3,136.6H472c24.3-39.3,39.3-86.4,39.3-136.6
		s-14.1-97.4-39.3-136.6H40C14.9,158.6,0.8,205.7,0.8,256z"/>
	<path id="XMLID_5_" class="st1" d="M472.7,119.4C427.2,47.9,347.1,0,256,0S84.8,47.9,39.3,119.4H472.7z"/>
	<path id="XMLID_6_" class="st1" d="M40,392.6C85.6,464.1,165.7,512,256.8,512S428,464.1,473.5,392.6H40z"/>
	<rect id="XMLID_7_" x="62" y="227.7" class="st2" width="27.5" height="15.7"/>
	<rect id="XMLID_8_" x="62" y="340" class="st2" width="28.3" height="14.1"/>
	<path id="XMLID_9_" class="st1" d="M59.7,316.5c-2.4,1.6-3.9,3.1-3.9,3.9c0,0.8,0.8,1.6,2.4,2.4c1.6,0.8,3.1,2.4,2.4,3.9
		c1.6-1.6,2.4-3.1,2.4-5.5C62.8,319.6,61.3,317.3,59.7,316.5"/>
	<rect id="XMLID_10_" x="66.7" y="243.4" class="st3" width="19.6" height="97.4"/>
	<path id="XMLID_11_" class="st1" d="M106.8,278.8c-3.9-1.6-11.8-3.1-20.4-3.1c-2.4,0-6.3,0-9.4,0.8c-11.8,1.6-21.2,7.1-20.4,10.2
		l-4.7-9.4c-0.8-3.9,9.4-9.4,22-11.8c3.9-0.8,8.6-0.8,11.8-0.8c8.6,0,16.5,0.8,20.4,2.4v11.8"/>
	<path id="XMLID_12_" class="st1" d="M66.7,292.1c-5.5,0-9.4-1.6-9.4-3.9c0-1.6,1.6-3.9,5.5-6.3c1.6,0,3.1,0,5.5,0L66.7,292.1"/>
	<path id="XMLID_13_" class="st1" d="M86.4,284.3c3.1,0.8,6.3,1.6,7.9,2.4c0.8,0.8-2.4,3.9-7.9,7.1V284.3"/>
	<path id="XMLID_14_" class="st1" d="M53.4,310.2c-0.8-1.6,5.5-5.5,12.6-7.9c3.1-0.8,6.3-2.4,10.2-3.9c10.2-3.9,18.8-10.2,17.3-11.8
		l1.6,10.2c0.8,1.6-6.3,7.1-16.5,11.8c-3.1,1.6-9.4,3.9-12.6,5.5c-6.3,1.6-11,5.5-11,6.3L53.4,310.2"/>
	<rect id="XMLID_15_" x="245" y="227.7" class="st2" width="27.5" height="15.7"/>
	<rect id="XMLID_16_" x="244.2" y="340" class="st2" width="28.3" height="14.1"/>
	<path id="XMLID_17_" class="st1" d="M274.8,316.5c2.4,1.6,3.9,3.1,3.9,3.9c0,0.8-0.8,1.6-2.4,2.4c-1.6,1.6-3.1,3.9-2.4,5.5
		c-1.6-1.6-2.4-3.1-2.4-4.7C271.7,319.6,273.3,317.3,274.8,316.5"/>
	<rect id="XMLID_18_" x="248.9" y="243.4" class="st3" width="19.6" height="97.4"/>
	<path id="XMLID_19_" class="st1" d="M228.5,278.8c3.9-1.6,11.8-3.1,20.4-3.1c2.4,0,6.3,0,9.4,0.8c11.8,1.6,21.2,7.1,20.4,10.2
		l3.9-10.2c0.8-3.9-9.4-9.4-22-11.8c-3.9,0-8.6,0-11.8,0c-8.6,0-16.5,0.8-20.4,2.4V278.8"/>
	<path id="XMLID_20_" class="st1" d="M268.6,292.1c5.5,0,9.4-1.6,9.4-3.9c0-1.6-1.6-3.9-5.5-6.3c-1.6,0-3.1,0-5.5,0L268.6,292.1"/>
	<path id="XMLID_21_" class="st1" d="M248.9,284.3c-3.1,0.8-6.3,1.6-7.9,2.4c-0.8,0.8,2.4,3.9,7.9,7.1V284.3"/>
	<path id="XMLID_22_" class="st1" d="M281.1,310.2c0.8-1.6-5.5-5.5-12.6-7.9c-3.1-0.8-6.3-2.4-10.2-3.9
		c-10.2-3.9-18.8-10.2-17.3-11.8l-1.6,10.2c-0.8,1.6,6.3,7.1,16.5,11.8c3.1,1.6,9.4,3.9,12.6,5.5c6.3,1.6,11,6.3,10.2,7.1
		L281.1,310.2"/>
	<path id="XMLID_23_" class="st1" d="M167.3,173.5c16.5,0,49.5,3.1,61.3,15.7c-12.6,30.6-33,18.1-61.3,18.1
		c-27.5,0-48.7,12.6-61.3-18.1C117.8,176.7,150,173.5,167.3,173.5"/>
	<path id="XMLID_24_" class="st2" d="M208.9,207.3c-10.2-6.3-25.9-7.1-41.6-7.1c-16.5,0-31.4,1.6-41.6,7.1l3.1,14.1
		c9.4,2.4,22.8,3.9,38.5,5.5c15.7,0,28.3-1.6,38.5-5.5L208.9,207.3"/>
	<path id="XMLID_25_" class="st2" d="M223,170.4c-3.1-2.4-10.2-5.5-16.5-5.5c-2.4,0-5.5,0-7.9,0.8c0,0-5.5-7.1-17.3-7.1
		c-3.9,0-7.9,0.8-11,2.4v0.8c-0.8-1.6-2.4-3.1-3.9-3.1s-3.9,2.4-3.9,3.9v0.8c-3.1-1.6-7.1-2.4-11-2.4c-11.8,0-17.3,7.9-17.3,7.1
		c-2.4-0.8-5.5-0.8-7.9-0.8c-39.3,0-19.6,26.7-19.6,26.7l3.9-5.5c-9.4-11.8-0.8-18.8,16.5-18.8c2.4,0,3.9,0,6.3,0.8
		c-6.3,8.6,5.5,16.5,5.5,16.5l2.4-3.9c-6.3-3.9-7.1-18.8,10.2-18.8c3.9,0,7.9,0.8,11,3.1c0,0.8-0.8,12.6-1.6,14.1l7.1,6.3l7.1-6.3
		c-0.8-2.4-1.6-13.3-1.6-14.1c2.4-1.6,7.1-3.1,11-3.1c18.1,0,18.1,14.1,10.2,18.8l2.4,3.9c0,0,9.4-7.9,5.5-16.5
		c1.6,0,3.9-0.8,6.3-0.8c20.4,0,21.2,15.7,16.5,18.8l3.1,5.5C225.4,193.2,234.8,181.4,223,170.4"/>
	<path id="XMLID_26_" class="st4" d="M161.8,154.7c0-2.4,2.4-5.5,5.5-5.5s5.5,2.4,5.5,5.5s-2.4,5.5-5.5,5.5S161.8,157.1,161.8,154.7
		"/>
	<polygon id="XMLID_27_" class="st2" points="164.9,139.8 164.9,142.9 162.6,142.9 162.6,145.3 164.9,145.3 164.9,149.2 
		164.9,153.9 161.8,153.9 161.8,154.7 161.8,156.3 172,156.3 172.8,154.7 172,153.9 168.8,153.9 168.8,149.2 168.8,145.3 
		171.2,145.3 171.2,142.9 168.8,142.9 168.8,139.8 	"/>
	<path id="XMLID_28_" class="st1" d="M167.3,224.6c-13.3,0-25.9-1.6-34.6-3.9c9.4-2.4,21.2-3.9,34.6-3.9s25.9,1.6,34.6,3.9
		C193.2,223,180.6,224.6,167.3,224.6"/>
	<path id="XMLID_29_" class="st3" d="M168,372.2c-16.5,0-31.4-3.9-45.5-10.2c-10.2-5.5-16.5-14.1-16.5-25.9v-40.8h122.5v40.8
		c0,11-7.1,21.2-16.5,25.9C199.5,368.3,183.8,372.2,168,372.2"/>
	<rect id="XMLID_30_" x="167.3" y="226.9" class="st3" width="61.3" height="68.3"/>
	<path id="XMLID_31_" class="st1" d="M168,336.1c0,16.5-13.3,29.1-30.6,29.1s-30.6-12.6-30.6-29.1v-40.8H168V336.1"/>
	<path id="XMLID_32_" class="st2" d="M119.4,359.7c1.6,0.8,3.9,2.4,7.9,3.1v-69.9h-7.1L119.4,359.7"/>
	<path id="XMLID_33_" class="st2" d="M105.2,335.3c0,8.6,3.1,15.7,7.1,18.8v-60.5h-7.1V335.3"/>
	<path id="XMLID_34_" class="st5" d="M132.7,365.2c2.4,0,5.5,0,7.1,0v-71.5h-7.1V365.2"/>
	<path id="XMLID_35_" class="st2" d="M146.8,363.6c2.4-0.8,6.3-2.4,7.9-3.1v-66.7h-7.1L146.8,363.6"/>
	<rect id="XMLID_36_" x="105.2" y="226.9" class="st1" width="61.3" height="68.3"/>
	<path id="XMLID_37_" class="st2" d="M161,354.2c3.1-2.4,6.3-8.6,7.1-15.7v-44H161V354.2"/>
	<path id="XMLID_38_" class="st1" d="M229.3,295.3v40.8c0,16.5-13.3,29.1-30.6,29.1S168,352.6,168,336.1v-40.8H229.3"/>
	<path id="XMLID_39_" class="st1" d="M207.3,238.7c2.4,5.5,2.4,18.1-5.5,15.7c1.6,0.8,2.4,7.1,5.5,10.2c3.9,5.5,9.4,0.8,8.6-5.5
		c-1.6-9.4-0.8-15.7,0.8-24.3c0,0.8,3.9,0.8,6.3-0.8c-0.8,2.4-1.6,6.3,0,6.3c-1.6,2.4-6.3,7.1-7.1,9.4c-0.8,6.3,8.6,17.3-1.6,19.6
		c-7.1,1.6-2.4,7.1,0,9.4c0,0-3.1,11-1.6,10.2c-7.1,2.4-5.5-3.1-5.5-3.1c3.1-10.2-6.3-11-5.5-12.6c-8.6-0.8,0.8,7.9-7.1,7.9
		c-1.6,0-5.5,1.6-5.5,1.6c-9.4-0.8-3.9-9.4-0.8-8.6c2.4,0.8,5.5,5.5,5.5-0.8c0,0-3.9-7.1,7.1-7.1c-3.9,0-7.1-3.1-8.6-7.9
		c-1.6,0.8-3.9,5.5-13.3,6.3c0,0-2.4-9.4,0-7.9c3.1,1.6,5.5,1.6,8.6-1.6c-2.4-3.1-12.6-7.1-10.2-12.6c0-1.6,5.5-3.9,5.5-3.9
		c-0.8,3.9,1.6,8.6,7.1,8.6c7.1,0.8,3.9-1.6,5.5-3.1c0.8-1.6,6.3,0.8,3.9-3.1c0-0.8-6.3-1.6-3.9-3.9
		C197.9,231.7,202.6,234.8,207.3,238.7"/>
	<polyline id="XMLID_40_" class="st1" points="168,363.6 166.5,358.9 168,354.2 169.6,358.9 168,363.6 	"/>
	<polygon id="XMLID_41_" class="st2" points="124.1,241.9 124.1,245.8 126.4,245.8 126.4,248.9 121.7,248.9 121.7,257.6 
		124.1,257.6 124.1,276.4 119.4,276.4 119.4,285.8 153.9,285.8 153.9,276.4 150,276.4 150,257.6 151.6,257.6 151.6,248.9 
		147.6,248.9 147.6,245.8 150,245.8 150,241.9 141.3,241.9 141.3,245.8 142.9,245.8 142.9,248.9 139,248.9 139,238.7 141.3,238.7 
		141.3,234.8 131.9,234.8 131.9,238.7 134.3,238.7 134.3,248.9 130.4,248.9 130.4,245.8 131.9,245.8 131.9,241.9 	"/>
	<path id="XMLID_49_" class="st2" d="M220.7,346.3v-42.4h-44v42.4l20.4,9.4h2.4L220.7,346.3 M197.1,307v14.1L183,307H197.1
		 M179,307.8l17.3,17.3L179,342.4V307.8 M180.6,345.5l16.5-16.5v23.6L180.6,345.5 M199.5,352.6V329l16.5,16.5L199.5,352.6
		 M217.5,342.4l-17.3-17.3l17.3-17.3V342.4 M199.5,307h14.1l-14.1,14.1V307"/>
	<path id="XMLID_50_" class="st1" d="M147.6,294.5c0-12.6,8.6-22,19.6-22s19.6,10.2,19.6,22s-8.6,22-19.6,22
		C155.5,316.5,147.6,307,147.6,294.5"/>
	<path id="XMLID_51_" class="st4" d="M153.1,294.5c0-9.4,6.3-16.5,13.3-16.5c7.9,0,13.3,7.9,13.3,16.5c0,9.4-6.3,16.5-13.3,16.5
		C159.4,310.2,153.1,303.9,153.1,294.5"/>
	<polyline id="XMLID_52_" class="st2" points="161,283.5 157.8,292.9 160.2,293.7 158.6,296.8 163.3,296.8 161.8,293.7 164.1,292.9 
		161,283.5 	"/>
	<polyline id="XMLID_53_" class="st2" points="173.5,283.5 170.4,292.9 172.8,293.7 171.2,296.8 176.7,296.8 175.1,293.7 
		178.3,292.9 173.5,283.5 	"/>
	<polyline id="XMLID_54_" class="st2" points="168,294.5 163.3,303.9 166.5,304.7 164.9,307.8 169.6,307.8 168.8,304.7 171.2,303.9 
		168,294.5 	"/>
</g>
</svg>
